<svg xmlns="http://www.w3.org/2000/svg" fill="#F2EDE3" viewBox="0 0 152.9 42"><title>imagotipo</title><g id="Capa_2" data-name="Capa 2"><g id="Capa_1-2" data-name="Capa 1"><path d="M59.39,20H56.82V4h2.57Zm4.75,0H57.66V17.71h6.48a7.24,7.24,0,0,0,3.06-.56A3.67,3.67,0,0,0,69,15.32,8.12,8.12,0,0,0,69.54,12,8.19,8.19,0,0,0,69,8.66,3.67,3.67,0,0,0,67.2,6.85a7.24,7.24,0,0,0-3.06-.56H57.66V4h6.48a9,9,0,0,1,4.33,1A6.82,6.82,0,0,1,71.28,7.7a8.71,8.71,0,0,1,1,4.3,8.71,8.71,0,0,1-1,4.3,6.82,6.82,0,0,1-2.81,2.77A9,9,0,0,1,64.14,20Z" transform="translate(0 -1.34)"/><path d="M76.79,6.72H74.2V4h2.59Zm0,13.32H74.2V8.11h2.59Z" transform="translate(0 -1.34)"/><path d="M86.85,20H83.68L78.11,8.11H81l4.24,9.41h.2l4.24-9.41h2.81Z" transform="translate(0 -1.34)"/><path d="M96.37,6.72H93.78V4h2.59Zm0,13.32H93.78V8.11h2.59Z" transform="translate(0 -1.34)"/><path d="M101.37,20h-2.6V8.11h2.38v3.75l.22.12Zm9.86,0h-2.59V13.56a3.5,3.5,0,0,0-.81-2.52,3.56,3.56,0,0,0-2.67-.84,3.71,3.71,0,0,0-2.87,1,4.15,4.15,0,0,0-.92,2.94l-.46,0-.12-2.35h.53a5.36,5.36,0,0,1,.78-1.91,4.29,4.29,0,0,1,1.63-1.46,6,6,0,0,1,5.32.1,4.25,4.25,0,0,1,1.64,1.8,5.81,5.81,0,0,1,.54,2.52Z" transform="translate(0 -1.34)"/><path d="M119.53,20.28a7.67,7.67,0,0,1-3.41-.72,5.18,5.18,0,0,1-2.26-2.11,6.58,6.58,0,0,1-.81-3.36,6.4,6.4,0,0,1,.81-3.27,5.64,5.64,0,0,1,2.24-2.17,7,7,0,0,1,3.38-.78,7.59,7.59,0,0,1,3.26.66,5,5,0,0,1,2.18,1.92,5.76,5.76,0,0,1,.78,3.09c0,.2,0,.4,0,.58a4.37,4.37,0,0,1-.08.54H114.71V13.22h9.19l-.67.89c0-.16,0-.31,0-.47v-.46a3,3,0,0,0-.94-2.46,4.35,4.35,0,0,0-2.87-.81,4,4,0,0,0-3,1,4,4,0,0,0-.91,2.83v.62a4.06,4.06,0,0,0,.91,2.86,4.07,4.07,0,0,0,3.07,1,4.7,4.7,0,0,0,2.7-.59A1.9,1.9,0,0,0,123,16v-.19h2.59V16a3.5,3.5,0,0,1-.78,2.25,5,5,0,0,1-2.14,1.51A8.38,8.38,0,0,1,119.53,20.28Z" transform="translate(0 -1.34)"/><path d="M56.86,40.89v-.77a1.34,1.34,0,0,0,.6-.13.68.68,0,0,0,.3-.42,3.6,3.6,0,0,0,.08-.84V33.15c0-.24,0-.46,0-.67s0-.39,0-.51l-.55,0-.49,0v-.92h3.72v.77A1.32,1.32,0,0,0,60,32a.61.61,0,0,0-.3.42,3,3,0,0,0-.09.84v2.22h4.23V33.15c0-.24,0-.46,0-.67a3.08,3.08,0,0,1,0-.51l-.55,0-.49,0v-.92h3.73v.77A1.34,1.34,0,0,0,66,32a.68.68,0,0,0-.3.42,3,3,0,0,0-.08.84V38.8c0,.26,0,.49,0,.7a4.8,4.8,0,0,1,0,.51l.55,0h.49v.92H62.85v-.77a1.34,1.34,0,0,0,.6-.13.68.68,0,0,0,.3-.42,3.6,3.6,0,0,0,.08-.84V36.37l-4.23.05V38.8c0,.26,0,.49,0,.7a4.8,4.8,0,0,1,0,.51l.54,0h.49v.92Z" transform="translate(0 -1.34)"/><path d="M71,41.11a3.65,3.65,0,0,1-1.81-.44,3.25,3.25,0,0,1-1.28-1.24,3.73,3.73,0,0,1-.47-1.89,4.15,4.15,0,0,1,.48-2,3.39,3.39,0,0,1,1.28-1.37A3.28,3.28,0,0,1,71,33.67a3.68,3.68,0,0,1,1.79.44A3.46,3.46,0,0,1,74,35.36a3.68,3.68,0,0,1,.47,1.89,4.36,4.36,0,0,1-.46,2,3.3,3.3,0,0,1-1.25,1.36A3.35,3.35,0,0,1,71,41.11Zm.07-.85a1.19,1.19,0,0,0,1-.39,2.22,2.22,0,0,0,.47-1,5.86,5.86,0,0,0,.13-1.26,6.89,6.89,0,0,0-.09-1.1,4.35,4.35,0,0,0-.28-1,2.23,2.23,0,0,0-.52-.73,1.2,1.2,0,0,0-.79-.27,1.34,1.34,0,0,0-1,.41,2.34,2.34,0,0,0-.52,1,4.83,4.83,0,0,0-.16,1.28,6,6,0,0,0,.18,1.47A2.83,2.83,0,0,0,70,39.82,1.27,1.27,0,0,0,71.06,40.26Z" transform="translate(0 -1.34)"/><path d="M78.28,41.11a3.16,3.16,0,0,1-.76-.09,1.68,1.68,0,0,1-.68-.37,1.84,1.84,0,0,1-.48-.79,4.38,4.38,0,0,1-.18-1.39l0-3.61h-1v-1A1.51,1.51,0,0,0,76,33.6a2.38,2.38,0,0,0,.69-.72,2.46,2.46,0,0,0,.39-1H78l0,2h2v.9l-2,0v3.6a3.14,3.14,0,0,0,.08.77,1.1,1.1,0,0,0,.28.57.72.72,0,0,0,.55.21,1.45,1.45,0,0,0,.61-.17,1.87,1.87,0,0,0,.69-.67l.57.52a3.3,3.3,0,0,1-.72.82,2.92,2.92,0,0,1-.71.44,2.47,2.47,0,0,1-.61.17Z" transform="translate(0 -1.34)"/><path d="M84.55,41.11a3.53,3.53,0,0,1-1.79-.45,3.1,3.1,0,0,1-1.22-1.29,4.18,4.18,0,0,1-.43-2,4,4,0,0,1,.43-1.83,3.56,3.56,0,0,1,1.23-1.38,3.23,3.23,0,0,1,1.84-.52,3.86,3.86,0,0,1,1.13.16,2.75,2.75,0,0,1,1,.56,2.79,2.79,0,0,1,.69,1A3.89,3.89,0,0,1,87.66,37l-4.7.08a5.07,5.07,0,0,0,.2,1.53,2.17,2.17,0,0,0,.66,1.06,1.89,1.89,0,0,0,1.22.38,2.36,2.36,0,0,0,.72-.12,3.33,3.33,0,0,0,.77-.36A3.22,3.22,0,0,0,87.2,39l.53.49a3.7,3.7,0,0,1-1,1,3.55,3.55,0,0,1-1.12.5A4.48,4.48,0,0,1,84.55,41.11ZM83,36.24h2.91a3.06,3.06,0,0,0-.16-.94,1.21,1.21,0,0,0-.43-.59,1.13,1.13,0,0,0-.69-.2,1.44,1.44,0,0,0-1.1.45A2.39,2.39,0,0,0,83,36.24Z" transform="translate(0 -1.34)"/><path d="M88.55,40.15a.8.8,0,0,0,.59-.18.85.85,0,0,0,.21-.49c0-.22,0-.46,0-.73v-6c0-.16,0-.33,0-.53s0-.38,0-.59l-.52,0-.48,0v-.91a6.24,6.24,0,0,0,1.06-.07,2.47,2.47,0,0,0,.64-.16,1,1,0,0,0,.33-.18h.63l0,8.57c0,.15,0,.33,0,.54s0,.41,0,.61l.49,0H92v.9H88.55Z" transform="translate(0 -1.34)"/><path d="M99.73,41.11a4.93,4.93,0,0,1-1.2-.15,3.45,3.45,0,0,1-1.07-.47,2.33,2.33,0,0,1-1-2A2.43,2.43,0,0,1,97,36.82a4.05,4.05,0,0,1,1.59-1.1,5.18,5.18,0,0,1-.71-.95,3.12,3.12,0,0,1-.33-.83,3.71,3.71,0,0,1-.08-.81,2.08,2.08,0,0,1,.74-1.65,2.83,2.83,0,0,1,1.9-.61,2.56,2.56,0,0,1,1.27.29,2.14,2.14,0,0,1,.83.77,1.94,1.94,0,0,1,.3,1,2.2,2.2,0,0,1-.27,1.06,3.33,3.33,0,0,1-.74.92,6.45,6.45,0,0,1-1.09.78l.53.56q.38.39.87.87l1,.92a1.8,1.8,0,0,0,.08-.39c0-.13,0-.26,0-.38a2.22,2.22,0,0,0-.08-.62.88.88,0,0,0-.28-.4.89.89,0,0,0-.49-.16V35.4h2.39v.88l-.91,0a1.2,1.2,0,0,1,.19.41,2.35,2.35,0,0,1,.06.54,5,5,0,0,1-.06.76,4.15,4.15,0,0,1-.2.77l.17.16.19.18a9.75,9.75,0,0,0,1,.77,1.52,1.52,0,0,0,.71.29v.77h-1.43a1.51,1.51,0,0,1-.52-.22,7.21,7.21,0,0,1-1-.7,3.85,3.85,0,0,1-1.25.83A4.3,4.3,0,0,1,99.73,41.11Zm.36-.89a2.51,2.51,0,0,0,1.13-.21,2.55,2.55,0,0,0,.83-.59l-.3-.27-.3-.28c-.57-.53-1-1-1.43-1.37s-.72-.76-1-1.1a1.44,1.44,0,0,0-.52.55,2.66,2.66,0,0,0-.34,1.21,2.28,2.28,0,0,0,.26,1.13,1.56,1.56,0,0,0,.68.69A2.31,2.31,0,0,0,100.09,40.22Zm-.2-5.1a2.77,2.77,0,0,0,.93-1.06,2.6,2.6,0,0,0,.31-1.11,1.5,1.5,0,0,0-.28-.92,1,1,0,0,0-.79-.37,1,1,0,0,0-.77.36,1.56,1.56,0,0,0-.31,1,2.41,2.41,0,0,0,.27,1.05A5.32,5.32,0,0,0,99.89,35.12Z" transform="translate(0 -1.34)"/><path d="M109.93,40.89v-.77a1.34,1.34,0,0,0,.6-.13.68.68,0,0,0,.3-.42,3.6,3.6,0,0,0,.08-.84V33.15c0-.24,0-.46,0-.67s0-.39,0-.51l-.55,0-.49,0v-.92l1.86,0h1.85a6.89,6.89,0,0,1,2.17.3,2.59,2.59,0,0,1,1.34.91,2.66,2.66,0,0,1,.44,1.63,2.75,2.75,0,0,1-.27,1.12,2.5,2.5,0,0,1-.79,1,4.12,4.12,0,0,1-1.46.66,1.87,1.87,0,0,1,.51.4,5.46,5.46,0,0,1,.46.59l.75,1.16a7.63,7.63,0,0,0,.52.72,1.79,1.79,0,0,0,.49.44,1.27,1.27,0,0,0,.6.16v.77h-2.13a3.14,3.14,0,0,1-.55-.59q-.25-.34-.54-.81l-1-1.61-.34-.55a2,2,0,0,0-.36-.44h-.79v1.9c0,.26,0,.5,0,.71a4.8,4.8,0,0,1,0,.51l.37,0,.43,0h.33v.92Zm3.47-4.84a3.39,3.39,0,0,0,1.3-.24,1.59,1.59,0,0,0,.77-.7,2.59,2.59,0,0,0,.26-1.22,2.44,2.44,0,0,0-.19-1,1.49,1.49,0,0,0-.5-.6,1.91,1.91,0,0,0-.69-.29,3.72,3.72,0,0,0-.74-.08A1.28,1.28,0,0,0,113,32a.62.62,0,0,0-.29.4,3.24,3.24,0,0,0-.07.78V36l.35,0Z" transform="translate(0 -1.34)"/><path d="M122.31,41.11a3.53,3.53,0,0,1-1.79-.45,3,3,0,0,1-1.22-1.29,4.18,4.18,0,0,1-.44-2,4,4,0,0,1,.44-1.83,3.62,3.62,0,0,1,1.22-1.38,3.25,3.25,0,0,1,1.84-.52,3.93,3.93,0,0,1,1.14.16,2.75,2.75,0,0,1,1,.56,2.79,2.79,0,0,1,.69,1,4.07,4.07,0,0,1,.25,1.57l-4.71.08a5.05,5.05,0,0,0,.21,1.53,2.1,2.1,0,0,0,.66,1.06,1.87,1.87,0,0,0,1.22.38,2.46,2.46,0,0,0,.72-.12,3.09,3.09,0,0,0,.76-.36A3,3,0,0,0,125,39l.54.49a3.6,3.6,0,0,1-1,1,3.36,3.36,0,0,1-1.12.5A4.33,4.33,0,0,1,122.31,41.11Zm-1.53-4.87h2.91a2.56,2.56,0,0,0-.16-.94,1.2,1.2,0,0,0-.42-.59,1.13,1.13,0,0,0-.69-.2,1.42,1.42,0,0,0-1.1.45A2.48,2.48,0,0,0,120.78,36.24Z" transform="translate(0 -1.34)"/><path d="M129.62,41.11a4.27,4.27,0,0,1-1.21-.16,3.22,3.22,0,0,1-.89-.41l0,.45h-.91l-.07-2.41h.75a1.62,1.62,0,0,0,.34.86,2,2,0,0,0,.76.6,2.41,2.41,0,0,0,1,.22,2,2,0,0,0,.54-.08,1,1,0,0,0,.43-.28.69.69,0,0,0,.17-.48.63.63,0,0,0-.2-.5,1.87,1.87,0,0,0-.57-.37c-.24-.11-.52-.23-.85-.35l-.87-.35a4.42,4.42,0,0,1-.8-.44,1.87,1.87,0,0,1-.58-.64,1.77,1.77,0,0,1-.23-.92,2.31,2.31,0,0,1,.14-.76,2,2,0,0,1,.45-.7,2.15,2.15,0,0,1,.79-.53,3.17,3.17,0,0,1,1.18-.19,4.05,4.05,0,0,1,.86.11,2.51,2.51,0,0,1,.84.4l0-.44h.91V36.2h-.75a2.31,2.31,0,0,0-.31-.88,1.81,1.81,0,0,0-.63-.6,1.84,1.84,0,0,0-.94-.23,1.21,1.21,0,0,0-.75.22.72.72,0,0,0-.31.64.75.75,0,0,0,.24.57,1.78,1.78,0,0,0,.64.38l.88.33a6.6,6.6,0,0,1,1.2.54,2.72,2.72,0,0,1,.86.74,1.8,1.8,0,0,1,.32,1.08,1.89,1.89,0,0,1-.36,1.19,2.12,2.12,0,0,1-.94.7A3.05,3.05,0,0,1,129.62,41.11Z" transform="translate(0 -1.34)"/><path d="M136.64,41.11a3.64,3.64,0,0,1-1.8-.44,3.25,3.25,0,0,1-1.28-1.24,3.63,3.63,0,0,1-.47-1.89,4.26,4.26,0,0,1,.47-2,3.53,3.53,0,0,1,1.28-1.37,3.34,3.34,0,0,1,1.78-.49,3.68,3.68,0,0,1,1.79.44,3.36,3.36,0,0,1,1.26,1.25,3.58,3.58,0,0,1,.47,1.89,4.36,4.36,0,0,1-.45,2,3.3,3.3,0,0,1-1.25,1.36A3.36,3.36,0,0,1,136.64,41.11Zm.07-.85a1.21,1.21,0,0,0,1-.39,2.32,2.32,0,0,0,.47-1,5.86,5.86,0,0,0,.13-1.26,6.89,6.89,0,0,0-.09-1.1,4.35,4.35,0,0,0-.29-1,2.08,2.08,0,0,0-.51-.73,1.2,1.2,0,0,0-.79-.27,1.32,1.32,0,0,0-1,.41,2.24,2.24,0,0,0-.52,1,4.83,4.83,0,0,0-.16,1.28,6,6,0,0,0,.18,1.47,2.83,2.83,0,0,0,.57,1.18A1.25,1.25,0,0,0,136.71,40.26Z" transform="translate(0 -1.34)"/><path d="M141.21,40.15a.75.75,0,0,0,.57-.18.85.85,0,0,0,.21-.49,5.44,5.44,0,0,0,0-.73V36.12c0-.17,0-.35,0-.54s0-.37,0-.57l-.52,0-.46,0v-.89h.52a2.86,2.86,0,0,0,.94-.14,1.82,1.82,0,0,0,.53-.27h.59c0,.11,0,.29,0,.53s0,.49,0,.73a5.22,5.22,0,0,1,.67-.72,2.77,2.77,0,0,1,.73-.46,1.82,1.82,0,0,1,.76-.16,1.28,1.28,0,0,1,.79.25.94.94,0,0,1,.34.81,1,1,0,0,1-.09.39.8.8,0,0,1-.28.35.81.81,0,0,1-.51.14.88.88,0,0,1-.55-.19.72.72,0,0,1-.28-.61,1,1,0,0,0-.6.21,2.7,2.7,0,0,0-.57.55,2.49,2.49,0,0,0-.39.66v2.66c0,.15,0,.33,0,.54s0,.41,0,.61l.48,0h.42v.9h-3.4Z" transform="translate(0 -1.34)"/><path d="M150.46,41.11a3.22,3.22,0,0,1-.76-.09,1.64,1.64,0,0,1-.67-.37,1.85,1.85,0,0,1-.49-.79,4.38,4.38,0,0,1-.18-1.39l0-3.61h-1v-1a1.51,1.51,0,0,0,.82-.29,2.48,2.48,0,0,0,.68-.72,2.64,2.64,0,0,0,.4-1h.85v2h2v.9l-2,0,0,3.6a3.71,3.71,0,0,0,.08.77,1.1,1.1,0,0,0,.28.57A.72.72,0,0,0,151,40a1.45,1.45,0,0,0,.61-.17,1.87,1.87,0,0,0,.69-.67l.58.52a3.75,3.75,0,0,1-.72.82,3.17,3.17,0,0,1-.72.44,2.47,2.47,0,0,1-.61.17Z" transform="translate(0 -1.34)"/><path d="M11.43,43.34V38.08h6.89a17.84,17.84,0,0,0,8.32-1.72,10.72,10.72,0,0,0,4.81-5.13,21.1,21.1,0,0,0,1.64-8.89,21.09,21.09,0,0,0-1.64-8.92,10.79,10.79,0,0,0-4.81-5.1A17.84,17.84,0,0,0,18.32,6.6H5.68V19.53H17.24V10.77h5.62V33.92H17.24V25.15H5.68V38.32a5,5,0,0,1-5,5H0v-42H18.32A22.13,22.13,0,0,1,29.24,3.92a18,18,0,0,1,7.18,7.3A23.23,23.23,0,0,1,39,22.34a23.17,23.17,0,0,1-2.54,11.12,18,18,0,0,1-7.18,7.31,22.12,22.12,0,0,1-10.92,2.57Z" transform="translate(0 -1.34)"/></g></g></svg>