<svg width="30" height="30" viewBox="0 0 30 30" fill="#171A1B" xmlns="http://www.w3.org/2000/svg">
<path d="M8.56185 29.9931V26.2339H13.7228C15.8726 26.3151 18.0112 25.9016 19.9578 25.0282C21.5443 24.2197 22.8036 22.9313 23.5376 21.3657C24.4237 19.3596 24.843 17.1942 24.7667 15.0188C24.8557 12.8384 24.4486 10.6654 23.5734 8.64917C22.8343 7.09114 21.5757 5.80955 19.9935 5.00369C18.0392 4.1132 15.8875 3.68777 13.7228 3.76389H4.25407V12.9885H12.9114V6.73259H17.1237V23.2595H12.9114V17.0036H4.25407V26.4045C4.2525 27.3558 3.85534 28.2677 3.14964 28.9404C2.44394 29.613 1.48726 29.9916 0.489248 29.9931H0V0.00466906H13.7228C16.5696 -0.0612259 19.3863 0.571323 21.9028 1.84162C24.1831 3.04975 26.048 4.86095 27.2726 7.05676C28.5953 9.5174 29.2497 12.2549 29.1759 15.0188C29.2517 17.7829 28.5972 20.5209 27.2726 22.9808C26.0498 25.1793 24.1846 26.9928 21.9028 28.2017C19.3819 29.4562 16.5654 30.073 13.7228 29.9931H8.56185Z" fill="#171A1B"/>
</svg>
