<svg xmlns="http://www.w3.org/2000/svg" viewBox="0 0 48.91 52.73"><title>logo-1</title><g id="Capa_2" data-name="Capa 2"><g id="Capa_1-2" data-name="Capa 1"><path d="M14.35,52.73V46.12H23A22.45,22.45,0,0,0,33.45,44a13.59,13.59,0,0,0,6-6.44,26.48,26.48,0,0,0,2.06-11.16,26.59,26.59,0,0,0-2-11.2,13.64,13.64,0,0,0-6-6.41A22.45,22.45,0,0,0,23,6.61H7.13V22.83H21.64v-11H28.7V40.89H21.64v-11H7.13V46.42A6.32,6.32,0,0,1,.82,52.73H0V0H23A27.85,27.85,0,0,1,36.71,3.23a22.66,22.66,0,0,1,9,9.17,29.08,29.08,0,0,1,3.19,14,29,29,0,0,1-3.19,14,22.63,22.63,0,0,1-9,9.18A27.85,27.85,0,0,1,23,52.73Z"/></g></g></svg>