<svg xmlns="http://www.w3.org/2000/svg" viewBox="0 0 395.85 411.4"><title>logo-full</title><g id="Capa_2" data-name="Capa 2"><g id="Capa_1-2" data-name="Capa 1"><path d="M294.21,354.68c8.18-5.29,17.51-7.24,27.1-7.23a15.15,15.15,0,0,0,11.95-5.16c33.75-34.94,51.66-76.82,55-125.08.17-2.5-1.15-5.09-1.77-7.64-.42-1.71-1.75-4-1.1-5,6.81-11.4,1.83-23,0-34-6.55-38.81-24.13-72.3-51.09-101-3.76-4-7.57-5.83-13.16-5.55a48.16,48.16,0,0,1-26.34-6.53c.18-1,.36-2,.55-3l26.9,3.82c-8.42-6-14.73-14-25.62-15.51-9.81-1.38-19.44-4-29.16-6l.36-2,26.89,4.14c-13.27-10.39-30.84-9.71-40.82-22.39l.87-2.26,21,7.92-9-20.52L269.24,0c2.95,3.66,6,7.27,8.82,11a12.31,12.31,0,0,1,2.55,4.84c2.32,13,11.87,19.06,22.45,24.45,3.59,1.83,6.69,4.64,11.71,8.21-2.63-11.24-4.83-20.62-7-30l1.51-.56a50,50,0,0,1,2.15,6.24c3.62,17.37,9.41,33.37,25.15,43.87,3.11,2.08,5.35,5.47,8.63,8.94-1.53-9.11-2.88-17.21-4.24-25.31l2.28-.89c1.09,1.45,2.71,2.76,3.16,4.38,1.83,6.59,4.36,13.24,4.62,19.94a32.28,32.28,0,0,0,6.21,18.22c20.21,29.06,31.6,61.33,34.57,96.64.36,4.29,2.74,8.38,3.76,12.66a13.59,13.59,0,0,1-.15,6.37c-.93,3.61-3.2,7-3.47,10.63A198.28,198.28,0,0,1,354.7,321.74a19.1,19.1,0,0,0-3.06,10c-.35,10.36-2.08,20.14-7.78,28.81L341,360l5-28.37c-9.29,9.74-18.17,17.89-25.52,27.25-3.45,4.39-4,11.08-5.75,16.77s-3.47,11.66-5.19,17.49l-1.77-.42c2.06-9.07,4.13-18.15,6.51-28.61-10,6.18-19.1,11.53-27.81,17.45-1.69,1.15-1.93,4.49-2.75,6.85-3.1,8.9-7.73,16.72-14.58,23l-2.5-1.33,9-20.65-21,8-.87-2.1c9.07-12.48,25.69-12.21,36.84-21.86l-22.19,3c17.71-6.75,38.55-5.37,51.4-22.76l-25,3.73Z"/><path d="M337.81,318.18c49.21-75.46,49.74-150.66-.73-225.77C386.7,144.56,395.1,252.1,337.81,318.18Z"/><path d="M95.32,384.15V340.28h57.46c28,0,51.34-4.81,69.36-14.3,17.72-9.33,31.21-23.72,40.1-42.78,9.08-19.43,13.68-44.38,13.68-74.13,0-30.09-4.6-55.11-13.67-74.38-8.9-18.92-22.4-33.23-40.11-42.56-18-9.49-41.36-14.3-69.36-14.3H47.37V185.61h96.34V112.55H190.6v193H143.71V232.5H47.37V342.26a41.94,41.94,0,0,1-41.9,41.89H0V34H152.78c34.91,0,65.53,7.22,91,21.47a150.17,150.17,0,0,1,59.86,60.91c14.05,26,21.17,57.19,21.17,92.73s-7.12,66.74-21.17,92.7a150.45,150.45,0,0,1-59.87,60.94c-25.51,14.23-56.13,21.44-91,21.44Z"/></g></g></svg>